<svg width="25" height="23" viewBox="0 0 25 23" fill="none" xmlns="http://www.w3.org/2000/svg">
<path opacity="0.5" d="M0.522382 0.501545C0.856965 0.193557 1.3107 0.0205385 1.78379 0.0205385C2.25689 0.0205385 2.71062 0.193557 3.04521 0.501545L12.4888 9.19719L21.9325 0.501545C22.0971 0.344635 22.2939 0.219479 22.5116 0.133378C22.7293 0.0472777 22.9634 0.00195758 23.2003 6.20289e-05C23.4372 -0.00183353 23.6722 0.0397336 23.8914 0.122338C24.1107 0.204942 24.3099 0.326929 24.4774 0.481182C24.6449 0.635434 24.7774 0.818862 24.8671 1.02076C24.9568 1.22266 25.002 1.439 24.9999 1.65713C24.9979 1.87527 24.9487 2.09085 24.8551 2.29128C24.7616 2.49172 24.6257 2.673 24.4553 2.82455L15.0117 11.5202L24.4553 20.2158C24.7803 20.5257 24.9601 20.9407 24.9561 21.3714C24.952 21.8022 24.7644 22.2142 24.4336 22.5188C24.1028 22.8234 23.6553 22.9962 23.1875 22.9999C22.7197 23.0037 22.269 22.8381 21.9325 22.5388L12.4888 13.8432L3.04521 22.5388C2.70871 22.8381 2.25802 23.0037 1.79022 22.9999C1.32241 22.9962 0.874917 22.8234 0.544116 22.5188C0.213316 22.2142 0.0256759 21.8022 0.0216108 21.3714C0.0175457 20.9407 0.19738 20.5257 0.522382 20.2158L9.96602 11.5202L0.522382 2.82455C0.187901 2.51646 0 2.09867 0 1.66304C0 1.22742 0.187901 0.809626 0.522382 0.501545Z" fill="white"/>
</svg>
